M48
; DRILL file {KiCad 9.0.8+dfsg-1} date 2026-09-29T19:14:39+0200
; FORMAT={-:-/ absolute / metric / decimal}
; #@! TF.CreationDate,2026-09-29T19:14:39+02:00
; #@! TF.GenerationSoftware,Kicad,Pcbnew,9.0.8+dfsg-1
; #@! TF.FileFunction,Plated,1,2,PTH
FMAT,2
METRIC
; #@! TA.AperFunction,Plated,PTH,ComponentDrill
T1C0.700
; #@! TA.AperFunction,Plated,PTH,ComponentDrill
T2C0.800
; #@! TA.AperFunction,Plated,PTH,ComponentDrill
T3C0.900
; #@! TA.AperFunction,Plated,PTH,ComponentDrill
T4C0.950
; #@! TA.AperFunction,Plated,PTH,ComponentDrill
T5C1.000
%
G90
G05
T1
X122.718Y-114.861
X122.718Y-117.283
X122.718Y-119.971
X122.747Y-122.717
X130.338Y-114.861
X130.338Y-117.283
X130.338Y-119.971
X130.367Y-122.717
X147.702Y-130.885
X147.702Y-138.505
X150.852Y-130.885
X150.852Y-138.505
X154.002Y-130.885
X154.002Y-138.505
X157.152Y-130.885
X157.152Y-138.505
T2
X124.5Y-137.16
X125.865Y-128.57
X125.865Y-132.07
X127.0Y-137.16
X135.2Y-114.98
X135.2Y-117.52
X135.2Y-120.06
X135.2Y-122.6
X135.2Y-125.14
X135.2Y-127.68
X135.2Y-130.22
X135.2Y-132.76
X142.82Y-114.98
X142.82Y-117.52
X142.82Y-120.06
X142.82Y-122.6
X142.82Y-125.14
X142.82Y-127.68
X142.82Y-130.22
X142.82Y-132.76
T3
X129.936Y-141.759
X129.936Y-144.299
X134.997Y-141.717
X134.997Y-144.257
X140.101Y-141.705
X140.101Y-144.245
X145.247Y-141.717
X145.247Y-144.257
T4
X155.504Y-115.113
X155.504Y-117.613
X155.504Y-120.113
X155.504Y-122.613
X155.504Y-125.113
T5
X117.036Y-129.336
X117.036Y-131.876
X117.046Y-114.95
X117.046Y-117.49
X117.046Y-120.03
X117.046Y-122.57
M30
